<svg width="31" height="19" viewBox="0 0 31 19" fill="none" xmlns="http://www.w3.org/2000/svg">
<path d="M15.5 3C11.4877 3 7.84919 5.19515 5.16431 8.76066C4.94523 9.05278 4.94523 9.46088 5.16431 9.75299C7.84919 13.3228 11.4877 15.5179 15.5 15.5179C19.5123 15.5179 23.1508 13.3228 25.8357 9.75729C26.0548 9.46517 26.0548 9.05707 25.8357 8.76496C23.1508 5.19515 19.5123 3 15.5 3ZM15.7878 13.6665C13.1244 13.834 10.925 11.6388 11.0925 8.97116C11.23 6.77171 13.0127 4.98895 15.2122 4.85149C17.8756 4.68395 20.075 6.8791 19.9075 9.54679C19.7657 11.7419 17.983 13.5247 15.7878 13.6665ZM15.6546 11.6303C14.2199 11.7205 13.0342 10.5391 13.1287 9.10433C13.2017 7.91869 14.164 6.96072 15.3496 6.8834C16.7844 6.79319 17.9701 7.97453 17.8756 9.40933C17.7983 10.5993 16.836 11.5572 15.6546 11.6303Z" fill="#130F40"/>
<rect y="17" width="34" height="2" rx="1" transform="rotate(-30 0 17)" fill="#130F40"/>
</svg>
