<svg width="48" height="48" viewBox="0 0 48 48" fill="none" xmlns="http://www.w3.org/2000/svg">
<path fill-rule="evenodd" clip-rule="evenodd" d="M35.8568 11.9523C34.9138 11.0093 33.3849 11.0093 32.4419 11.9523L23.9045 20.4896L15.3672 11.9523C14.4242 11.0093 12.8953 11.0093 11.9523 11.9523C11.0092 12.8953 11.0092 14.4242 11.9523 15.3672L20.4896 23.9045L11.9523 32.4419C11.0092 33.3849 11.0092 34.9138 11.9523 35.8568C12.8953 36.7998 14.4242 36.7998 15.3672 35.8568L23.9045 27.3195L32.4419 35.8568C33.3849 36.7998 34.9138 36.7998 35.8568 35.8568C36.7998 34.9138 36.7998 33.3849 35.8568 32.4419L27.3194 23.9045L35.8568 15.3672C36.7998 14.4242 36.7998 12.8953 35.8568 11.9523Z" fill="white"/>
</svg>
