<svg width="199" height="176" viewBox="0 0 199 176" fill="none" xmlns="http://www.w3.org/2000/svg">
<g filter="url(#filter0_d)">
<path fill-rule="evenodd" clip-rule="evenodd" d="M107.717 141.078C104.423 136.826 98.7976 134.607 93.5823 135.92C88.5722 137.181 83.3271 137.851 77.9255 137.851C42.6204 137.851 14 109.231 14 73.9255C14 38.6204 42.6204 10 77.9255 10C112.413 10 140.522 37.3106 141.805 71.4844C141.806 71.5088 141.826 71.5283 141.85 71.5283C165.681 71.5283 185 90.847 185 114.678C185 138.509 165.681 157.828 141.85 157.828C127.964 157.828 115.609 151.268 107.717 141.078Z" fill="white"/>
</g>
<defs>
<filter id="filter0_d" x="0" y="0" width="199" height="175.828" filterUnits="userSpaceOnUse" color-interpolation-filters="sRGB">
<feFlood flood-opacity="0" result="BackgroundImageFix"/>
<feColorMatrix in="SourceAlpha" type="matrix" values="0 0 0 0 0 0 0 0 0 0 0 0 0 0 0 0 0 0 127 0"/>
<feOffset dy="4"/>
<feGaussianBlur stdDeviation="7"/>
<feColorMatrix type="matrix" values="0 0 0 0 0.0745098 0 0 0 0 0.0588235 0 0 0 0 0.25098 0 0 0 0.4 0"/>
<feBlend mode="normal" in2="BackgroundImageFix" result="effect1_dropShadow"/>
<feBlend mode="normal" in="SourceGraphic" in2="effect1_dropShadow" result="shape"/>
</filter>
</defs>
</svg>
