<svg width="27" height="26" viewBox="0 0 27 26" fill="none" xmlns="http://www.w3.org/2000/svg">
<path fill-rule="evenodd" clip-rule="evenodd" d="M25.5001 0.952258C24.5571 0.00925027 23.0282 0.00925052 22.0852 0.952259L13.5478 9.48961L5.0105 0.952286C4.06749 0.00927817 2.53857 0.00927851 1.59557 0.952286C0.652556 1.8953 0.652557 3.42421 1.59557 4.36722L10.1329 12.9045L1.59557 21.4419C0.652558 22.3849 0.652559 23.9138 1.59557 24.8568C2.53857 25.7998 4.06749 25.7998 5.0105 24.8568L13.5478 16.3195L22.0852 24.8568C23.0282 25.7998 24.5571 25.7998 25.5001 24.8568C26.4431 23.9138 26.4431 22.3849 25.5001 21.4419L16.9628 12.9045L25.5001 4.36719C26.4431 3.42419 26.4431 1.89527 25.5001 0.952258Z" fill="#FF1616"/>
</svg>
