<svg width="18" height="17" viewBox="0 0 18 17" fill="none" xmlns="http://www.w3.org/2000/svg">
<path d="M17.5 4.51562C17.4219 6.20833 16.224 8.53906 13.9062 11.5078C11.5365 14.6068 9.53125 16.1432 7.89062 16.1172C6.875 16.1172 6.0026 15.1797 5.27344 13.3047L4.72656 11.1953C4.1276 8.95573 3.69792 7.51042 3.4375 6.85938C3.04688 5.81771 2.63021 5.29688 2.1875 5.29688C2.05729 5.29688 1.60156 5.57031 0.820312 6.11719L0 5.0625L1.13281 4.04688C2.17448 3.10938 2.91667 2.47135 3.35938 2.13281C4.11458 1.5599 4.71354 1.26042 5.15625 1.23438C6.51042 1.10417 7.34375 2.02865 7.65625 4.00781C8.07292 6.53385 8.41146 8.2526 8.67188 9.16406C8.95833 10.2318 9.29688 10.7396 9.6875 10.6875C10.0781 10.6354 10.625 10.0625 11.3281 8.96875C12.0573 7.79688 12.4479 6.91146 12.5 6.3125C12.5781 5.50521 12.3177 5.02344 11.7188 4.86719C11.25 4.73698 10.6901 4.8151 10.0391 5.10156C10.8984 2.28906 12.5391 0.921875 14.9609 1C16.7578 1.05208 17.6042 2.22396 17.5 4.51562Z" fill="white"/>
</svg>
