<svg width="22" height="15" viewBox="0 0 22 15" fill="none" xmlns="http://www.w3.org/2000/svg">
<path d="M21.4844 2.34375C21.3542 1.875 21.1198 1.47135 20.7812 1.13281C20.4427 0.794271 20.0391 0.559896 19.5703 0.429688C18.8932 0.247396 17.3047 0.117188 14.8047 0.0390625L11.25 0L7.69531 0.0390625C5.19531 0.117188 3.60677 0.247396 2.92969 0.429688C2.46094 0.559896 2.05729 0.794271 1.71875 1.13281C1.38021 1.47135 1.14583 1.875 1.01562 2.34375C0.833333 3.04688 0.703125 4.11458 0.625 5.54688C0.598958 6.27604 0.585938 6.92708 0.585938 7.5L0.625 9.45312C0.703125 10.9115 0.833333 11.9922 1.01562 12.6953C1.14583 13.138 1.38021 13.5286 1.71875 13.8672C2.05729 14.2057 2.46094 14.4401 2.92969 14.5703C3.60677 14.7526 5.19531 14.8828 7.69531 14.9609L11.25 15L14.8047 14.9609C17.3047 14.8828 18.8932 14.7526 19.5703 14.5703C20.0391 14.4401 20.4427 14.2057 20.7812 13.8672C21.1198 13.5286 21.3542 13.138 21.4844 12.6953C21.6667 11.9922 21.7969 10.9115 21.875 9.45312L21.9141 7.5L21.875 5.54688C21.7969 4.11458 21.6667 3.04688 21.4844 2.34375ZM9.0625 10.7031V4.33594L14.6484 7.5L9.0625 10.7031Z" fill="white"/>
</svg>
